<svg version="1.1" id="Layer_1" xmlns="http://www.w3.org/2000/svg" xmlns:xlink="http://www.w3.org/1999/xlink" x="0px" y="0px"
	 width="100%" viewBox="0 0 977 1024" enable-background="new 0 0 977 1024" xml:space="preserve">
<path fill="#000000" opacity="1.000000" stroke="none" 
	d="
M697.000000,1.000000 
	C790.651306,1.000000 884.302673,1.000000 977.976990,1.000000 
	C977.976990,342.262085 977.976990,683.524170 977.976990,1024.893066 
	C652.333374,1024.893066 326.666687,1024.893066 1.000000,1024.893066 
	C1.000000,932.222412 1.000000,839.570923 1.468657,746.459656 
	C24.236151,745.999084 46.534988,745.998352 68.894882,746.462280 
	C68.955940,770.506958 68.955940,794.086914 68.955940,817.654175 
	C365.398102,817.654175 660.952820,817.654175 956.705750,817.654175 
	C956.705750,761.403503 956.705750,705.499390 956.705750,649.001160 
	C954.303833,649.001160 952.187378,649.001587 950.070923,649.001160 
	C860.746338,648.983337 771.421814,648.965393 682.054565,648.483887 
	C682.007935,615.354004 681.985474,582.687744 682.005554,550.021484 
	C682.023743,520.357605 682.088257,490.693787 682.590271,461.017883 
	C687.630554,461.005859 692.212952,461.005859 696.999878,461.005859 
	C696.999878,458.233215 696.999939,456.246185 696.999939,454.259186 
	C696.999756,371.002014 696.998291,287.744843 697.005981,204.487656 
	C697.006165,202.325974 697.104614,200.164307 697.486023,198.146698 
	C698.875549,198.863007 700.027283,199.313416 700.982300,200.027069 
	C707.730408,205.069473 714.438110,210.165909 721.158752,215.245132 
	C721.689758,214.986359 722.220764,214.727585 722.751831,214.468811 
	C718.453064,197.915283 714.154358,181.361755 709.875122,164.883148 
	C727.703735,154.247131 750.440979,137.086334 750.509888,134.227692 
	C733.477661,133.086227 716.444397,131.944702 699.888428,130.835175 
	C698.808105,127.854797 697.844543,125.196617 696.938965,122.102203 
	C696.997986,81.443985 696.998962,41.221992 697.000000,1.000000 
M810.383423,287.000000 
	C797.632874,287.551575 784.767700,285.734253 771.728821,288.326294 
	C772.249023,289.319519 772.359558,289.876434 772.697144,290.125061 
	C785.027649,299.207428 797.419495,308.207642 809.665405,317.402313 
	C810.878540,318.313171 811.913086,320.434448 811.814026,321.912445 
	C811.623169,324.760101 810.721985,327.601074 809.832947,330.353607 
	C806.622437,340.293304 803.250000,350.180664 800.039612,360.120392 
	C799.132935,362.927582 798.570679,365.846008 797.850403,368.713409 
	C798.288757,369.039673 798.727112,369.365967 799.165527,369.692230 
	C801.043396,368.151642 802.819702,366.462708 804.816345,365.095459 
	C814.726929,358.308990 824.793701,351.745880 834.598877,344.811981 
	C838.900879,341.769745 842.628723,340.487274 847.390503,344.008789 
	C856.443420,350.703766 865.753601,357.052673 875.000854,363.482147 
	C877.976135,365.550842 881.089355,367.421204 885.016113,369.945892 
	C884.817078,367.624573 884.916016,366.339813 884.573181,365.186401 
	C882.700439,358.886719 880.733337,352.614807 878.771545,346.341858 
	C876.319214,338.500519 873.747375,330.694366 871.465271,322.804108 
	C871.088257,321.500336 871.399414,319.182800 872.297485,318.463440 
	C876.615295,315.004730 881.289856,311.996399 885.751404,308.710999 
	C893.671448,302.878906 901.546814,296.985535 909.384583,291.043579 
	C910.141785,290.469543 910.503418,289.373901 912.019958,287.000000 
	C903.204346,287.000000 895.805786,287.000031 888.407227,287.000000 
	C881.742249,286.999969 875.075867,287.084137 868.412720,286.973541 
	C862.978088,286.883362 858.313660,285.692993 856.688721,279.322479 
	C855.502747,274.672821 853.575562,270.214539 852.027039,265.654572 
	C848.891113,256.420197 845.788025,247.174652 842.671448,237.933685 
	C842.180054,237.868057 841.688660,237.802444 841.197266,237.736816 
	C839.523987,242.298798 837.814697,246.847931 836.184753,251.425339 
	C832.417969,262.002960 828.739075,272.612335 824.874695,283.153870 
	C824.459473,284.286560 823.170349,285.684387 822.090698,285.880524 
	C818.558655,286.522186 814.935974,286.665222 810.383423,287.000000 
M702.532043,941.026062 
	C710.099976,946.081177 717.667908,951.136353 726.035645,956.725708 
	C725.594910,952.844116 725.728027,949.695679 724.832153,946.874023 
	C720.935791,934.603516 716.675476,922.448792 712.740234,910.190063 
	C712.284241,908.769531 712.410156,906.254883 713.323181,905.457275 
	C717.528503,901.783569 722.027405,898.425781 726.571411,895.164185 
	C735.434875,888.802185 744.398743,882.580261 754.460388,875.498535 
	C751.229675,874.792358 749.427246,874.100342 747.606323,874.047546 
	C733.195801,873.629761 718.782593,873.194885 704.368042,873.100281 
	C700.860046,873.077209 699.865540,871.295288 699.004639,868.620544 
	C696.901184,862.085510 694.859009,855.524902 692.518738,849.073730 
	C690.217407,842.729919 687.524048,836.529236 685.124878,830.219299 
	C684.472351,828.503235 684.260681,826.619507 683.846680,824.812744 
	C683.266418,824.833740 682.686096,824.854736 682.105774,824.875732 
	C676.463318,840.803711 670.820862,856.731689 664.869629,873.531311 
	C648.035645,873.531311 630.654236,873.531311 611.636169,873.531311 
	C613.337341,875.643250 613.870239,876.654358 614.696655,877.273743 
	C619.788208,881.089783 624.989990,884.759033 630.070435,888.589294 
	C636.344727,893.319397 642.090149,898.980469 648.908508,902.685059 
	C654.129395,905.521667 653.644348,909.109436 652.509888,912.846436 
	C648.680786,925.459595 644.304749,937.905945 640.307678,950.470032 
	C639.779663,952.129700 640.235107,954.102234 640.235107,956.621338 
	C653.233887,947.682251 665.419678,939.279297 677.634949,930.919373 
	C680.436401,929.002075 682.999573,926.884949 686.742065,929.872498 
	C691.576111,933.731201 696.891907,936.986328 702.532043,941.026062 
M941.563110,525.959045 
	C950.579468,518.384766 961.111572,512.609802 970.331238,503.000000 
	C953.100159,503.000000 937.618347,503.042786 922.137512,502.937775 
	C920.479492,502.926575 917.967102,502.560211 917.334778,501.485535 
	C915.489685,498.349487 914.255005,494.820862 913.034546,491.356842 
	C908.968140,479.814728 905.022888,468.229919 900.985596,456.677429 
	C900.767578,456.053497 900.180725,455.197571 899.679993,455.135071 
	C899.181274,455.072815 898.280640,455.758240 898.059875,456.315369 
	C894.992676,464.057159 891.869690,471.782074 889.050537,479.615570 
	C886.244385,487.412659 883.764526,495.327118 881.108887,503.288391 
	C863.193970,503.288391 846.164062,503.288391 829.134094,503.288391 
	C828.963623,503.645050 828.793091,504.001740 828.622620,504.358398 
	C842.559814,514.979675 856.497070,525.600952 869.978516,535.874939 
	C864.978394,552.743774 860.251831,568.689758 855.525269,584.635742 
	C855.954285,584.894104 856.383301,585.152466 856.812256,585.410828 
	C862.555298,581.549438 868.320251,577.720337 874.035889,573.818909 
	C881.718018,568.575256 889.271484,563.133728 897.110107,558.137878 
	C898.440552,557.289978 901.400879,557.548645 902.799744,558.493347 
	C912.162048,564.815308 921.262695,571.523010 930.540344,577.973083 
	C934.333679,580.610291 938.356201,582.917725 943.531311,586.163452 
	C941.723816,579.697937 940.446106,574.756042 938.957458,569.878601 
	C935.712891,559.247620 932.312134,548.664001 929.145630,538.010315 
	C928.892761,537.159607 929.671021,535.586853 930.454834,534.915466 
	C933.875488,531.985474 937.475220,529.264587 941.563110,525.959045 
M466.038177,891.056946 
	C465.803131,889.614319 465.815887,888.065247 465.255768,886.762390 
	C464.796082,885.693054 463.655273,884.916504 462.816315,884.010254 
	C462.119110,884.884277 461.143341,885.654541 460.772491,886.650208 
	C459.086761,891.175903 457.606232,895.777405 455.987793,900.328857 
	C452.232452,910.889771 448.440094,921.437439 444.554169,932.293823 
	C427.243805,932.293823 410.219513,932.293823 393.195190,932.293823 
	C392.968781,932.735718 392.742340,933.177612 392.515930,933.619507 
	C406.378052,944.093445 420.240173,954.567383 433.955170,964.930176 
	C429.004028,981.279541 424.130951,997.371094 419.257874,1013.462708 
	C419.775543,1013.765747 420.293213,1014.068787 420.810913,1014.371887 
	C423.453857,1012.476990 426.070557,1010.544067 428.744507,1008.694031 
	C438.700531,1001.805725 448.631653,994.879578 458.677582,988.124451 
	C460.862671,986.655151 463.236511,985.500610 466.126038,987.545105 
	C475.561981,994.221741 485.165100,1000.662048 494.699219,1007.200134 
	C498.201599,1009.602112 501.690796,1012.023254 505.186005,1014.435669 
	C505.552643,1014.133850 505.919281,1013.831970 506.285919,1013.530151 
	C505.867767,1011.335693 505.671631,1009.068420 504.981537,1006.963074 
	C503.826569,1003.439697 502.139648,1000.085449 501.062653,996.542664 
	C498.582672,988.384644 496.571289,980.078186 493.907745,971.984009 
	C492.190704,966.766296 492.967590,963.089844 497.545288,960.144409 
	C500.153412,958.466492 502.849426,956.907776 505.346313,955.077698 
	C513.225464,949.302368 521.076294,943.485352 528.821899,937.533264 
	C530.326904,936.376709 531.308472,934.539062 533.346863,932.000000 
	C530.098633,932.000000 528.468567,932.000000 526.838562,932.000000 
	C512.850464,932.000000 498.861481,932.071106 484.875427,931.903748 
	C483.255219,931.884338 480.840881,930.962646 480.200897,929.729431 
	C478.679382,926.798035 478.116791,923.386292 476.960541,920.244507 
	C473.467621,910.753479 469.876434,901.298523 466.038177,891.056946 
M181.000992,880.501587 
	C190.641968,887.807922 200.264343,895.138977 209.930618,902.411682 
	C216.150467,907.091309 216.330276,907.545471 213.977783,914.823975 
	C210.224670,926.435852 206.445709,938.039734 202.786575,949.681213 
	C202.183319,951.600342 202.136169,953.694336 201.660492,956.842651 
	C204.041321,955.400146 205.434235,954.656616 206.721069,953.760742 
	C217.961685,945.934875 229.186707,938.086670 240.408401,930.233704 
	C243.309814,928.203247 246.173569,927.858643 249.218185,930.017395 
	C253.829254,933.286682 258.556854,936.391907 263.158844,939.673584 
	C270.648010,945.013855 278.044556,950.484924 285.578217,955.760681 
	C286.322235,956.281738 287.747192,955.830383 289.232574,955.830383 
	C284.105103,939.225220 279.092163,922.990967 274.055237,906.678955 
	C287.726959,896.516541 301.420746,886.337708 316.287170,875.287231 
	C312.844330,874.712036 310.716766,874.060547 308.585449,874.047913 
	C293.514801,873.958679 278.443390,874.000488 263.456329,874.000488 
	C257.302368,856.803589 251.558777,840.753357 245.815170,824.703125 
	C245.298645,824.775146 244.782120,824.847229 244.265594,824.919312 
	C238.631989,840.895874 232.998367,856.872437 226.958908,874.000000 
	C218.881012,874.000000 210.467514,873.999878 202.054031,874.000000 
	C194.890045,874.000061 187.724243,873.911804 180.563339,874.060059 
	C178.660309,874.099426 176.772354,874.865295 174.521500,875.378784 
	C176.999496,877.294861 178.736023,878.637573 181.000992,880.501587 
z"/>
<path fill="#FFC50D" opacity="1.000000" stroke="none" 
	d="
M68.833824,745.997559 
	C46.534988,745.998352 24.236151,745.999084 1.468657,745.999939 
	C1.000000,558.979126 1.000000,371.958221 1.468657,184.468231 
	C110.577484,183.995148 219.217651,183.991150 328.027954,184.372589 
	C328.446198,186.875854 328.903351,188.993042 328.909790,191.111603 
	C328.969452,210.730133 328.951355,230.348877 328.588562,250.123535 
	C274.779022,258.795349 221.326065,267.245728 167.920944,275.988495 
	C164.689606,276.517456 160.964874,278.682678 158.940796,281.247498 
	C120.870964,329.487732 83.045547,377.920776 45.070072,426.235718 
	C42.995956,428.874542 40.058220,430.834564 36.453205,434.070343 
	C36.472584,437.590820 39.842316,441.018799 43.937382,442.536896 
	C54.486687,446.447693 65.127335,450.763855 76.122169,452.703705 
	C115.189125,459.596558 154.710587,459.396729 194.209930,458.348969 
	C218.037277,457.716919 241.863541,456.479156 265.141998,450.923431 
	C272.990265,449.050323 280.610718,445.863708 287.984497,442.506866 
	C291.905273,440.721985 295.652252,437.652771 295.056274,433.217194 
	C292.372833,431.312744 289.996552,430.328705 288.640961,428.561646 
	C253.466309,382.709412 218.395416,336.777618 183.327057,290.843933 
	C182.591553,289.880554 182.097183,288.733124 181.329300,287.389832 
	C183.544907,286.925385 185.150543,286.515472 186.780273,286.257965 
	C219.180939,281.138611 251.581406,276.017914 283.988556,270.939941 
	C298.948639,268.595764 313.922882,266.341949 328.901184,264.512695 
	C328.900757,327.128601 328.876282,389.278961 328.893707,451.429352 
	C328.896301,460.726837 327.770813,459.821136 337.048126,459.825470 
	C449.851898,459.878174 562.655640,459.902954 675.459351,459.990875 
	C677.684021,459.992615 679.908081,460.668549 682.132446,461.029938 
	C682.088257,490.693787 682.023743,520.357605 682.005554,550.021484 
	C681.985474,582.687744 682.007935,615.354004 681.759338,648.800903 
	C679.189941,649.705322 676.873108,649.937988 674.556274,649.937683 
	C475.256134,649.915222 275.956024,649.874756 76.655891,649.835632 
	C74.396988,649.835144 72.138084,649.835571 69.635582,649.835571 
	C69.635582,652.615356 69.636765,654.607910 69.635406,656.600464 
	C69.616638,684.095886 69.615158,711.591370 69.546432,739.086670 
	C69.540672,741.390869 69.082054,743.693970 68.833824,745.997559 
M422.500000,535.937012 
	C296.531219,535.912170 170.562424,535.886841 44.593632,535.866638 
	C42.595161,535.866333 40.561474,535.704590 38.605743,536.010864 
	C34.858646,536.597900 31.773113,538.315796 31.864954,542.653992 
	C31.950520,546.695801 34.873318,548.398193 38.449539,548.917786 
	C40.575676,549.226746 42.771721,549.092224 44.936359,549.093018 
	C206.562729,549.152649 368.189117,549.205872 529.815491,549.259644 
	C532.114380,549.260376 534.413208,549.259766 537.080017,549.259766 
	C537.466553,553.900818 537.378601,558.112549 538.247314,562.116699 
	C539.787659,569.215698 541.655945,576.271545 543.913452,583.173157 
	C544.801331,585.887634 547.026001,588.264648 551.320190,587.528870 
	C551.320190,574.888855 551.320190,562.321594 551.320190,549.656982 
	C552.726501,549.478027 553.531799,549.285950 554.337158,549.286072 
	C576.997986,549.289429 599.659058,549.276978 622.319336,549.402527 
	C624.019531,549.411987 625.844971,550.186951 627.389465,551.019409 
	C635.452698,555.365356 643.668152,555.562439 651.899414,551.842468 
	C655.657166,550.144226 658.749878,547.388306 658.814270,542.823486 
	C658.878845,538.243408 655.859192,535.503113 652.097229,533.697571 
	C644.074097,529.846924 636.070068,530.086182 628.031799,533.983826 
	C625.751038,535.089722 623.069336,535.913208 620.565552,535.929321 
	C599.238525,536.066650 577.910156,535.993103 556.582153,535.962952 
	C554.964722,535.960693 553.347534,535.806519 551.142029,535.692505 
	C551.142029,522.797180 551.142029,510.229431 551.142029,496.574127 
	C548.711670,497.912659 546.762085,498.378723 545.795898,499.613983 
	C537.542175,510.166443 538.766052,523.166443 536.951416,535.938538 
	C499.061646,535.938538 461.280823,535.938538 422.500000,535.937012 
z"/>
<path fill="#E82716" opacity="1.000000" stroke="none" 
	d="
M682.590271,461.017883 
	C679.908081,460.668549 677.684021,459.992615 675.459351,459.990875 
	C562.655640,459.902954 449.851898,459.878174 337.048126,459.825470 
	C327.770813,459.821136 328.896301,460.726837 328.893707,451.429352 
	C328.876282,389.278961 328.900757,327.128601 329.285645,264.355835 
	C330.143219,263.608704 330.620392,263.443054 331.111481,263.364990 
	C377.487274,255.992157 423.862946,248.618973 470.241760,241.265152 
	C480.035461,239.712265 489.840668,238.231873 500.683594,236.556961 
	C499.219666,238.680054 498.463837,239.910172 497.579346,241.039581 
	C463.899109,284.046692 430.233734,327.065521 396.457275,369.996948 
	C394.193420,372.874451 391.077454,375.081543 387.251038,378.625519 
	C388.448486,380.202057 390.047760,383.325348 392.544952,385.330048 
	C395.470825,387.678894 398.988586,389.784637 402.581512,390.717743 
	C414.472748,393.806061 426.390381,397.209045 438.519806,398.886200 
	C475.104431,403.944916 511.955109,403.776581 548.774841,402.616669 
	C573.087402,401.850769 597.420227,400.474701 621.049011,394.034180 
	C627.554626,392.260895 633.838806,389.347351 639.859741,386.248260 
	C643.411682,384.419983 646.653931,381.428589 646.076904,377.894440 
	C643.048523,375.560181 640.682129,374.390991 639.229126,372.514587 
	C625.260132,354.475525 611.439758,336.321350 597.587158,318.192200 
	C573.925598,287.225830 550.258118,256.264008 526.632568,225.270248 
	C523.887329,221.668777 520.608826,219.692505 515.936829,220.441635 
	C469.572266,227.876068 423.209198,235.320282 376.834015,242.688095 
	C360.891541,245.220947 344.916168,247.547028 328.955841,249.967560 
	C328.951355,230.348877 328.969452,210.730133 328.909790,191.111603 
	C328.903351,188.993042 328.446198,186.875854 328.086426,183.906860 
	C327.983185,122.370461 327.991608,61.685230 328.000000,1.000000 
	C450.687561,1.000000 573.375122,1.000000 696.531372,1.000000 
	C696.998962,41.221992 696.997986,81.443985 696.661011,122.463928 
	C696.130676,124.560242 695.769592,125.858269 695.766846,127.157036 
	C695.722229,148.700684 695.683228,170.244583 695.776001,191.787857 
	C695.784973,193.861404 696.675781,195.931122 697.157227,198.002625 
	C697.104614,200.164307 697.006165,202.325974 697.005981,204.487656 
	C696.998291,287.744843 696.999756,371.002014 696.999939,454.259186 
	C696.999939,456.246185 696.999878,458.233215 696.999878,461.005859 
	C692.212952,461.005859 687.630554,461.005859 682.590271,461.017883 
z"/>
<path fill="#000000" opacity="1.000000" stroke="none" 
	d="
M327.531342,1.000000 
	C327.991608,61.685230 327.983185,122.370461 327.916290,183.521423 
	C219.217651,183.991150 110.577484,183.995148 1.468657,183.999573 
	C1.000000,123.052353 1.000000,62.104713 1.000000,1.000000 
	C109.687508,1.000000 218.375092,1.000000 327.531342,1.000000 
z"/>
<path fill="#014F99" opacity="1.000000" stroke="none" 
	d="
M68.894882,746.462280 
	C69.082054,743.693970 69.540672,741.390869 69.546432,739.086670 
	C69.615158,711.591370 69.616638,684.095886 69.635406,656.600464 
	C69.636765,654.607910 69.635582,652.615356 69.635582,649.835571 
	C72.138084,649.835571 74.396988,649.835144 76.655891,649.835632 
	C275.956024,649.874756 475.256134,649.915222 674.556274,649.937683 
	C676.873108,649.937988 679.189941,649.705322 681.802002,649.264526 
	C771.421814,648.965393 860.746338,648.983337 950.070923,649.001160 
	C952.187378,649.001587 954.303833,649.001160 956.705750,649.001160 
	C956.705750,705.499390 956.705750,761.403503 956.705750,817.654175 
	C660.952820,817.654175 365.398102,817.654175 68.955940,817.654175 
	C68.955940,794.086914 68.955940,770.506958 68.894882,746.462280 
M809.743286,751.874268 
	C805.315125,766.227417 800.886902,780.580627 796.054871,796.242615 
	C798.148254,794.887207 798.964661,794.381470 799.757812,793.841492 
	C811.591431,785.785828 823.461304,777.782410 835.219849,769.618652 
	C837.578064,767.981506 839.282227,767.636414 841.791077,769.483704 
	C847.953979,774.021423 854.365662,778.222290 860.695190,782.532410 
	C867.059448,786.866089 873.445251,791.168030 880.807434,796.151184 
	C880.019043,793.305115 879.622192,791.731201 879.147339,790.181152 
	C875.247620,777.452820 871.450134,764.690979 867.343384,752.029602 
	C866.282227,748.757874 866.907593,746.903137 869.672241,744.966858 
	C876.078796,740.480164 882.282532,735.702759 888.545715,731.012939 
	C894.339233,726.674805 900.103210,722.297119 906.892639,717.172607 
	C903.993713,716.973022 902.424561,716.801636 900.852356,716.766785 
	C887.365906,716.467896 873.879578,716.072510 860.391541,715.994690 
	C856.876465,715.974426 855.147766,715.010559 853.984924,711.500122 
	C849.799072,698.863892 845.223816,686.356506 840.773621,673.808289 
	C840.211853,672.224304 839.518677,670.687012 838.452881,668.059204 
	C832.988403,683.536865 827.886841,697.778992 822.972168,712.085449 
	C822.011597,714.881592 820.643250,715.925415 817.622131,715.948792 
	C803.800720,716.055359 789.981079,716.415771 776.161377,716.711548 
	C774.616882,716.744568 773.075928,716.945923 770.651123,717.139648 
	C772.384460,718.580078 773.339905,719.444580 774.365540,720.215515 
	C785.543945,728.617981 796.694824,737.057922 807.953369,745.351746 
	C810.109741,746.940308 811.355957,748.426025 809.743286,751.874268 
M294.640442,741.250793 
	C296.022064,742.552429 297.720337,743.646545 298.732178,745.190552 
	C303.928650,753.119873 308.911285,761.188904 314.044495,769.160278 
	C317.095001,773.897522 320.785950,775.212524 324.370422,773.032471 
	C328.225220,770.688171 328.715759,766.743286 325.618774,761.772827 
	C321.413147,755.023132 317.117096,748.329773 312.569672,741.154419 
	C314.625092,740.667664 316.190369,740.316406 317.745605,739.925415 
	C325.607269,737.948853 327.877838,735.052124 327.892670,726.971497 
	C327.903961,720.814209 327.925079,714.656799 327.894012,708.499695 
	C327.863220,702.394531 326.125031,699.305969 320.365814,697.668030 
	C307.141876,693.907166 293.716583,693.921509 280.468262,697.503296 
	C274.365112,699.153381 272.782043,702.048767 272.768677,708.647156 
	C272.738953,723.291443 272.743835,737.935852 272.747864,752.580200 
	C272.749268,757.571960 272.652039,762.569397 272.857269,767.553650 
	C273.018585,771.470825 275.488800,773.709412 279.251434,773.911926 
	C283.023682,774.114868 285.678406,772.111450 286.294373,768.261719 
	C286.685028,765.820312 286.579437,763.290344 286.592316,760.799561 
	C286.626434,754.213379 286.603912,747.626892 286.603912,740.869385 
	C289.495361,740.998352 291.639893,741.094055 294.640442,741.250793 
M386.379883,774.012390 
	C390.010773,773.547363 393.711609,773.382690 397.258484,772.556824 
	C405.402557,770.660522 407.651489,767.623535 407.661682,759.283630 
	C407.682068,742.620728 407.697998,725.957886 407.689148,709.294983 
	C407.685303,702.046753 405.525482,698.766907 398.493317,697.101868 
	C386.164185,694.182556 373.683685,694.171143 361.355499,697.105042 
	C354.614563,698.709167 352.452484,701.994324 352.434448,708.979004 
	C352.391846,725.475220 352.396973,741.971497 352.392975,758.467773 
	C352.390717,767.858154 354.727051,771.244629 364.017181,772.694824 
	C371.046356,773.792114 378.271942,773.631409 386.379883,774.012390 
M151.424744,727.902466 
	C145.328644,727.902466 139.232559,727.902466 133.136017,727.902466 
	C133.136017,721.565735 133.136017,715.936829 133.136017,709.638428 
	C137.561386,709.410217 141.830658,708.956604 146.091522,709.025085 
	C152.491028,709.127930 158.941986,708.453308 164.958206,712.214417 
	C166.508270,713.183533 171.015259,711.940002 172.213516,710.293518 
	C173.594406,708.396118 173.767578,704.463379 172.703354,702.269043 
	C171.646774,700.090515 168.607147,698.188049 166.079880,697.523621 
	C153.132614,694.119873 140.021286,694.035156 127.080254,697.517212 
	C120.755905,699.218933 119.066345,702.171692 119.057793,708.997559 
	C119.037117,725.491882 119.041336,741.986145 119.038803,758.480469 
	C119.037346,767.984314 121.260277,771.720032 130.582443,772.622437 
	C141.097687,773.640137 151.802414,773.265808 162.383163,772.708130 
	C165.701859,772.533203 169.281631,770.303406 172.023666,768.114502 
	C174.919479,765.802734 175.028397,762.156860 172.672394,759.111023 
	C170.315430,756.063843 167.100281,755.631287 163.720901,757.402588 
	C153.757446,762.624939 143.449081,759.830994 133.328949,759.568726 
	C133.328949,753.084473 133.328949,747.364868 133.328949,741.602234 
	C134.553909,741.540527 135.381805,741.467041 136.210098,741.462036 
	C143.539474,741.418335 150.873611,741.531860 158.196518,741.294861 
	C162.307449,741.161987 164.776489,738.576965 164.665359,734.507935 
	C164.555099,730.470642 161.998825,728.184998 157.889496,727.941895 
	C156.062820,727.833801 154.225235,727.909912 151.424744,727.902466 
M612.611938,709.049805 
	C619.833923,709.313599 627.164062,708.171692 633.946411,712.410339 
	C635.396912,713.316833 639.452820,712.046509 640.853821,710.478882 
	C642.252075,708.914429 642.803650,705.281555 641.942749,703.350830 
	C640.929626,701.079041 638.270386,698.746887 635.852783,698.027283 
	C622.146240,693.948120 608.260498,693.913025 594.526306,697.971069 
	C589.951721,699.322754 587.567261,702.721741 587.769348,707.835388 
	C587.986267,713.325134 588.005981,718.839600 587.749023,724.326172 
	C587.519714,729.221191 589.555542,732.055115 594.095581,733.769226 
	C604.374634,737.649963 614.554016,741.794861 624.770813,745.840088 
	C628.302490,747.238403 630.837891,755.672119 628.617859,758.792053 
	C628.280457,759.266235 627.541870,759.709595 626.974792,759.727783 
	C617.278076,760.039551 607.417419,762.396912 598.129272,757.425293 
	C594.724915,755.603210 591.490601,756.161316 589.200500,759.191467 
	C586.919312,762.209778 587.270447,765.520203 589.858276,768.297913 
	C590.960266,769.480774 592.391663,770.656799 593.893982,771.119812 
	C608.108032,775.500061 622.410522,775.597839 636.625305,771.213562 
	C640.859192,769.907715 642.962402,766.605591 642.915344,762.027954 
	C642.855347,756.196899 642.826050,750.363159 642.937744,744.533508 
	C643.022400,740.116211 641.097046,737.424988 636.936829,735.858826 
	C628.212341,732.574463 619.566772,729.077515 610.916199,725.599915 
	C601.098206,721.653015 601.107788,721.620483 601.834412,711.025146 
	C601.854370,710.733276 602.140747,710.459656 602.555725,709.737793 
	C605.403931,709.528320 608.531433,709.298279 612.611938,709.049805 
M207.113510,697.579529 
	C204.387360,697.003784 201.090530,695.231812 199.093521,696.184448 
	C197.044479,697.161926 195.150528,700.784729 195.108871,703.281738 
	C194.784027,722.756958 194.974274,742.240112 194.879593,761.720215 
	C194.857056,766.357361 196.932251,769.620422 201.081589,770.949463 
	C215.252365,775.488464 229.571899,775.456909 243.776276,771.086182 
	C247.712601,769.875000 250.072418,766.891724 250.069397,762.445374 
	C250.055801,742.465393 250.095551,722.485352 250.056183,702.505493 
	C250.047668,698.182861 247.724976,695.598633 243.426559,695.226807 
	C239.412216,694.879578 236.561356,697.872742 236.215958,702.464478 
	C236.116287,703.789368 236.181778,705.127258 236.181229,706.459167 
	C236.174667,722.276672 236.177673,738.094238 236.153778,753.911743 
	C236.151123,755.667114 235.997757,757.422302 235.896271,759.556396 
	C226.676727,759.556396 217.978500,759.556396 208.826569,759.556396 
	C208.826569,757.038757 208.825974,755.233643 208.826675,753.428467 
	C208.832916,737.277954 208.887466,721.127075 208.790726,704.977173 
	C208.777191,702.718933 208.021164,700.465088 207.113510,697.579529 
M549.172791,734.499939 
	C549.172791,742.757141 549.172791,751.014343 549.172791,759.675415 
	C539.694641,759.675415 530.989441,759.675415 521.921082,759.675415 
	C521.921082,757.153259 521.920654,755.337891 521.921143,753.522583 
	C521.925293,737.025940 521.957581,720.529236 521.918152,704.032715 
	C521.905090,698.585815 519.342896,695.397217 515.124084,695.268494 
	C510.639679,695.131653 508.027985,698.302246 508.016327,704.144897 
	C507.978424,723.140991 508.095306,742.138062 507.925873,761.132751 
	C507.878754,766.411743 510.050598,769.999878 514.864868,771.408813 
	C528.601990,775.429016 542.480774,775.423767 556.237610,771.492126 
	C560.099609,770.388367 563.020447,767.714111 563.031982,763.200867 
	C563.083923,742.872131 563.108826,722.543152 563.043213,702.214539 
	C563.029907,698.091797 560.588318,695.736084 556.553162,695.325317 
	C552.825256,694.945740 549.772034,697.836304 549.269775,702.010742 
	C549.111511,703.326721 549.189148,704.673035 549.187866,706.005493 
	C549.178833,715.170288 549.177551,724.335083 549.172791,734.499939 
M483.303986,761.865967 
	C483.313354,743.368408 483.325043,724.870850 483.327728,706.373291 
	C483.327942,704.874756 483.401031,703.358582 483.207031,701.881165 
	C482.696014,697.988770 480.333832,695.899109 476.463959,695.906067 
	C472.612976,695.913025 470.219360,697.976562 469.676239,701.861816 
	C469.470062,703.336914 469.523804,704.853455 469.521729,706.351196 
	C469.499084,722.682373 469.374695,739.014832 469.562561,755.343689 
	C469.605042,759.034851 468.410797,760.546082 464.833069,760.499146 
	C458.514801,760.416260 452.195526,760.398438 445.876587,760.382019 
	C442.872101,760.374207 441.951172,758.896729 442.038818,755.968445 
	C442.228088,749.641663 442.137024,743.304871 442.083252,736.972900 
	C442.037598,731.598633 439.428223,728.348694 435.240753,728.273560 
	C431.027313,728.197998 428.265259,731.437683 428.217041,736.792908 
	C428.142029,745.124451 428.326874,753.460205 428.142517,761.788330 
	C428.024506,767.119019 430.553619,770.518188 435.359161,771.862305 
	C448.959137,775.666260 462.677399,775.677307 476.275085,771.849365 
	C480.583344,770.636414 483.498566,767.721924 483.303986,761.865967 
M697.953125,749.499634 
	C697.953125,736.090027 697.953125,722.680420 697.953125,709.005127 
	C702.680420,709.005127 706.659851,709.075256 710.635864,708.987244 
	C715.543579,708.878540 718.751831,706.012207 718.638184,702.000305 
	C718.526733,698.068176 715.580994,695.341125 710.836670,695.300964 
	C697.684326,695.189514 684.530090,695.175964 671.377625,695.270813 
	C666.579468,695.305420 663.749695,697.963745 663.645996,701.977356 
	C663.538452,706.138977 666.545837,708.870850 671.560608,708.984802 
	C675.653992,709.077942 679.751221,709.003784 683.939270,709.003784 
	C684.042358,710.660461 684.156128,711.640686 684.156494,712.620972 
	C684.163818,730.436157 684.112610,748.251465 684.183105,766.066345 
	C684.202820,771.048096 687.043945,774.149902 691.113647,774.121643 
	C695.202454,774.093262 697.850647,771.014771 697.929138,765.983215 
	C698.009583,760.823059 697.950684,755.660645 697.953125,749.499634 
z"/>
<path fill="#FFC50C" opacity="1.000000" stroke="none" 
	d="
M810.865784,287.000000 
	C814.935974,286.665222 818.558655,286.522186 822.090698,285.880524 
	C823.170349,285.684387 824.459473,284.286560 824.874695,283.153870 
	C828.739075,272.612335 832.417969,262.002960 836.184753,251.425339 
	C837.814697,246.847931 839.523987,242.298798 841.197266,237.736816 
	C841.688660,237.802444 842.180054,237.868057 842.671448,237.933685 
	C845.788025,247.174652 848.891113,256.420197 852.027039,265.654572 
	C853.575562,270.214539 855.502747,274.672821 856.688721,279.322479 
	C858.313660,285.692993 862.978088,286.883362 868.412720,286.973541 
	C875.075867,287.084137 881.742249,286.999969 888.407227,287.000000 
	C895.805786,287.000031 903.204346,287.000000 912.019958,287.000000 
	C910.503418,289.373901 910.141785,290.469543 909.384583,291.043579 
	C901.546814,296.985535 893.671448,302.878906 885.751404,308.710999 
	C881.289856,311.996399 876.615295,315.004730 872.297485,318.463440 
	C871.399414,319.182800 871.088257,321.500336 871.465271,322.804108 
	C873.747375,330.694366 876.319214,338.500519 878.771545,346.341858 
	C880.733337,352.614807 882.700439,358.886719 884.573181,365.186401 
	C884.916016,366.339813 884.817078,367.624573 885.016113,369.945892 
	C881.089355,367.421204 877.976135,365.550842 875.000854,363.482147 
	C865.753601,357.052673 856.443420,350.703766 847.390503,344.008789 
	C842.628723,340.487274 838.900879,341.769745 834.598877,344.811981 
	C824.793701,351.745880 814.726929,358.308990 804.816345,365.095459 
	C802.819702,366.462708 801.043396,368.151642 799.165527,369.692230 
	C798.727112,369.365967 798.288757,369.039673 797.850403,368.713409 
	C798.570679,365.846008 799.132935,362.927582 800.039612,360.120392 
	C803.250000,350.180664 806.622437,340.293304 809.832947,330.353607 
	C810.721985,327.601074 811.623169,324.760101 811.814026,321.912445 
	C811.913086,320.434448 810.878540,318.313171 809.665405,317.402313 
	C797.419495,308.207642 785.027649,299.207428 772.697144,290.125061 
	C772.359558,289.876434 772.249023,289.319519 771.728821,288.326294 
	C784.767700,285.734253 797.632874,287.551575 810.865784,287.000000 
z"/>
<path fill="#FFC50C" opacity="1.000000" stroke="none" 
	d="
M702.266113,940.763794 
	C696.891907,936.986328 691.576111,933.731201 686.742065,929.872498 
	C682.999573,926.884949 680.436401,929.002075 677.634949,930.919373 
	C665.419678,939.279297 653.233887,947.682251 640.235107,956.621338 
	C640.235107,954.102234 639.779663,952.129700 640.307678,950.470032 
	C644.304749,937.905945 648.680786,925.459595 652.509888,912.846436 
	C653.644348,909.109436 654.129395,905.521667 648.908508,902.685059 
	C642.090149,898.980469 636.344727,893.319397 630.070435,888.589294 
	C624.989990,884.759033 619.788208,881.089783 614.696655,877.273743 
	C613.870239,876.654358 613.337341,875.643250 611.636169,873.531311 
	C630.654236,873.531311 648.035645,873.531311 664.869629,873.531311 
	C670.820862,856.731689 676.463318,840.803711 682.105774,824.875732 
	C682.686096,824.854736 683.266418,824.833740 683.846680,824.812744 
	C684.260681,826.619507 684.472351,828.503235 685.124878,830.219299 
	C687.524048,836.529236 690.217407,842.729919 692.518738,849.073730 
	C694.859009,855.524902 696.901184,862.085510 699.004639,868.620544 
	C699.865540,871.295288 700.860046,873.077209 704.368042,873.100281 
	C718.782593,873.194885 733.195801,873.629761 747.606323,874.047546 
	C749.427246,874.100342 751.229675,874.792358 754.460388,875.498535 
	C744.398743,882.580261 735.434875,888.802185 726.571411,895.164185 
	C722.027405,898.425781 717.528503,901.783569 713.323181,905.457275 
	C712.410156,906.254883 712.284241,908.769531 712.740234,910.190063 
	C716.675476,922.448792 720.935791,934.603516 724.832153,946.874023 
	C725.728027,949.695679 725.594910,952.844116 726.035645,956.725708 
	C717.667908,951.136353 710.099976,946.081177 702.266113,940.763794 
z"/>
<path fill="#FFC50C" opacity="1.000000" stroke="none" 
	d="
M941.286499,526.213379 
	C937.475220,529.264587 933.875488,531.985474 930.454834,534.915466 
	C929.671021,535.586853 928.892761,537.159607 929.145630,538.010315 
	C932.312134,548.664001 935.712891,559.247620 938.957458,569.878601 
	C940.446106,574.756042 941.723816,579.697937 943.531311,586.163452 
	C938.356201,582.917725 934.333679,580.610291 930.540344,577.973083 
	C921.262695,571.523010 912.162048,564.815308 902.799744,558.493347 
	C901.400879,557.548645 898.440552,557.289978 897.110107,558.137878 
	C889.271484,563.133728 881.718018,568.575256 874.035889,573.818909 
	C868.320251,577.720337 862.555298,581.549438 856.812256,585.410828 
	C856.383301,585.152466 855.954285,584.894104 855.525269,584.635742 
	C860.251831,568.689758 864.978394,552.743774 869.978516,535.874939 
	C856.497070,525.600952 842.559814,514.979675 828.622620,504.358398 
	C828.793091,504.001740 828.963623,503.645050 829.134094,503.288391 
	C846.164062,503.288391 863.193970,503.288391 881.108887,503.288391 
	C883.764526,495.327118 886.244385,487.412659 889.050537,479.615570 
	C891.869690,471.782074 894.992676,464.057159 898.059875,456.315369 
	C898.280640,455.758240 899.181274,455.072815 899.679993,455.135071 
	C900.180725,455.197571 900.767578,456.053497 900.985596,456.677429 
	C905.022888,468.229919 908.968140,479.814728 913.034546,491.356842 
	C914.255005,494.820862 915.489685,498.349487 917.334778,501.485535 
	C917.967102,502.560211 920.479492,502.926575 922.137512,502.937775 
	C937.618347,503.042786 953.100159,503.000000 970.331238,503.000000 
	C961.111572,512.609802 950.579468,518.384766 941.286499,526.213379 
z"/>
<path fill="#FFC50C" opacity="1.000000" stroke="none" 
	d="
M466.180878,891.443237 
	C469.876434,901.298523 473.467621,910.753479 476.960541,920.244507 
	C478.116791,923.386292 478.679382,926.798035 480.200897,929.729431 
	C480.840881,930.962646 483.255219,931.884338 484.875427,931.903748 
	C498.861481,932.071106 512.850464,932.000000 526.838562,932.000000 
	C528.468567,932.000000 530.098633,932.000000 533.346863,932.000000 
	C531.308472,934.539062 530.326904,936.376709 528.821899,937.533264 
	C521.076294,943.485352 513.225464,949.302368 505.346313,955.077698 
	C502.849426,956.907776 500.153412,958.466492 497.545288,960.144409 
	C492.967590,963.089844 492.190704,966.766296 493.907745,971.984009 
	C496.571289,980.078186 498.582672,988.384644 501.062653,996.542664 
	C502.139648,1000.085449 503.826569,1003.439697 504.981537,1006.963074 
	C505.671631,1009.068420 505.867767,1011.335693 506.285919,1013.530151 
	C505.919281,1013.831970 505.552643,1014.133850 505.186005,1014.435669 
	C501.690796,1012.023254 498.201599,1009.602112 494.699219,1007.200134 
	C485.165100,1000.662048 475.561981,994.221741 466.126038,987.545105 
	C463.236511,985.500610 460.862671,986.655151 458.677582,988.124451 
	C448.631653,994.879578 438.700531,1001.805725 428.744507,1008.694031 
	C426.070557,1010.544067 423.453857,1012.476990 420.810913,1014.371887 
	C420.293213,1014.068787 419.775543,1013.765747 419.257874,1013.462708 
	C424.130951,997.371094 429.004028,981.279541 433.955170,964.930176 
	C420.240173,954.567383 406.378052,944.093445 392.515930,933.619507 
	C392.742340,933.177612 392.968781,932.735718 393.195190,932.293823 
	C410.219513,932.293823 427.243805,932.293823 444.554169,932.293823 
	C448.440094,921.437439 452.232452,910.889771 455.987793,900.328857 
	C457.606232,895.777405 459.086761,891.175903 460.772491,886.650208 
	C461.143341,885.654541 462.119110,884.884277 462.816345,884.010254 
	C463.655273,884.916504 464.796082,885.693054 465.255768,886.762390 
	C465.815887,888.065247 465.803131,889.614319 466.180878,891.443237 
z"/>
<path fill="#FFC50C" opacity="1.000000" stroke="none" 
	d="
M180.736771,880.240967 
	C178.736023,878.637573 176.999496,877.294861 174.521500,875.378784 
	C176.772354,874.865295 178.660309,874.099426 180.563339,874.060059 
	C187.724243,873.911804 194.890045,874.000061 202.054031,874.000000 
	C210.467514,873.999878 218.881012,874.000000 226.958908,874.000000 
	C232.998367,856.872437 238.631989,840.895874 244.265594,824.919312 
	C244.782120,824.847229 245.298645,824.775146 245.815170,824.703125 
	C251.558777,840.753357 257.302368,856.803589 263.456329,874.000488 
	C278.443390,874.000488 293.514801,873.958679 308.585449,874.047913 
	C310.716766,874.060547 312.844330,874.712036 316.287170,875.287231 
	C301.420746,886.337708 287.726959,896.516541 274.055237,906.678955 
	C279.092163,922.990967 284.105103,939.225220 289.232574,955.830383 
	C287.747192,955.830383 286.322235,956.281738 285.578217,955.760681 
	C278.044556,950.484924 270.648010,945.013855 263.158844,939.673584 
	C258.556854,936.391907 253.829254,933.286682 249.218185,930.017395 
	C246.173569,927.858643 243.309814,928.203247 240.408401,930.233704 
	C229.186707,938.086670 217.961685,945.934875 206.721069,953.760742 
	C205.434235,954.656616 204.041321,955.400146 201.660492,956.842651 
	C202.136169,953.694336 202.183319,951.600342 202.786575,949.681213 
	C206.445709,938.039734 210.224670,926.435852 213.977783,914.823975 
	C216.330276,907.545471 216.150467,907.091309 209.930618,902.411682 
	C200.264343,895.138977 190.641968,887.807922 180.736771,880.240967 
z"/>
<path fill="#FFC50C" opacity="1.000000" stroke="none" 
	d="
M697.486023,198.146698 
	C696.675781,195.931122 695.784973,193.861404 695.776001,191.787857 
	C695.683228,170.244583 695.722229,148.700684 695.766846,127.157036 
	C695.769592,125.858269 696.130676,124.560242 696.603027,122.900146 
	C697.844543,125.196617 698.808105,127.854797 699.888428,130.835175 
	C716.444397,131.944702 733.477661,133.086227 750.509888,134.227692 
	C750.440979,137.086334 727.703735,154.247131 709.875122,164.883148 
	C714.154358,181.361755 718.453064,197.915283 722.751831,214.468811 
	C722.220764,214.727585 721.689758,214.986359 721.158752,215.245132 
	C714.438110,210.165909 707.730408,205.069473 700.982300,200.027069 
	C700.027283,199.313416 698.875549,198.863007 697.486023,198.146698 
z"/>
<path fill="#FFFCFA" opacity="1.000000" stroke="none" 
	d="
M328.588562,250.123535 
	C344.916168,247.547028 360.891541,245.220947 376.834015,242.688095 
	C423.209198,235.320282 469.572266,227.876068 515.936829,220.441635 
	C520.608826,219.692505 523.887329,221.668777 526.632568,225.270248 
	C550.258118,256.264008 573.925598,287.225830 597.587158,318.192200 
	C611.439758,336.321350 625.260132,354.475525 639.229126,372.514587 
	C640.682129,374.390991 643.048523,375.560181 646.076904,377.894440 
	C646.653931,381.428589 643.411682,384.419983 639.859741,386.248260 
	C633.838806,389.347351 627.554626,392.260895 621.049011,394.034180 
	C597.420227,400.474701 573.087402,401.850769 548.774841,402.616669 
	C511.955109,403.776581 475.104431,403.944916 438.519806,398.886200 
	C426.390381,397.209045 414.472748,393.806061 402.581512,390.717743 
	C398.988586,389.784637 395.470825,387.678894 392.544952,385.330048 
	C390.047760,383.325348 388.448486,380.202057 387.251038,378.625519 
	C391.077454,375.081543 394.193420,372.874451 396.457275,369.996948 
	C430.233734,327.065521 463.899109,284.046692 497.579346,241.039581 
	C498.463837,239.910172 499.219666,238.680054 500.683594,236.556961 
	C489.840668,238.231873 480.035461,239.712265 470.241760,241.265152 
	C423.862946,248.618973 377.487274,255.992157 331.111481,263.364990 
	C330.620392,263.443054 330.143219,263.608704 329.275146,263.890320 
	C313.922882,266.341949 298.948639,268.595764 283.988556,270.939941 
	C251.581406,276.017914 219.180939,281.138611 186.780273,286.257965 
	C185.150543,286.515472 183.544907,286.925385 181.329300,287.389832 
	C182.097183,288.733124 182.591553,289.880554 183.327057,290.843933 
	C218.395416,336.777618 253.466309,382.709412 288.640961,428.561646 
	C289.996552,430.328705 292.372833,431.312744 295.056274,433.217194 
	C295.652252,437.652771 291.905273,440.721985 287.984497,442.506866 
	C280.610718,445.863708 272.990265,449.050323 265.141998,450.923431 
	C241.863541,456.479156 218.037277,457.716919 194.209930,458.348969 
	C154.710587,459.396729 115.189125,459.596558 76.122169,452.703705 
	C65.127335,450.763855 54.486687,446.447693 43.937382,442.536896 
	C39.842316,441.018799 36.472584,437.590820 36.453205,434.070343 
	C40.058220,430.834564 42.995956,428.874542 45.070072,426.235718 
	C83.045547,377.920776 120.870964,329.487732 158.940796,281.247498 
	C160.964874,278.682678 164.689606,276.517456 167.920944,275.988495 
	C221.326065,267.245728 274.779022,258.795349 328.588562,250.123535 
M68.595650,421.098328 
	C66.233566,424.178741 63.871479,427.259125 60.832333,431.222504 
	C131.624069,431.222504 201.065964,431.222504 271.325012,431.222504 
	C236.467133,385.615875 202.115234,340.671234 167.284653,295.100311 
	C134.284561,337.243652 101.668579,378.896423 68.595650,421.098328 
M605.216553,353.292664 
	C576.332336,315.515839 547.448120,277.738983 518.182129,239.462845 
	C482.485352,285.059601 447.270172,330.041199 411.665680,375.520050 
	C482.260040,375.520050 551.760620,375.520050 622.153748,375.520050 
	C616.292175,367.839600 610.962830,360.856567 605.216553,353.292664 
z"/>
<path fill="#FFFEFB" opacity="1.000000" stroke="none" 
	d="
M423.000000,535.937744 
	C461.280823,535.938538 499.061646,535.938538 536.951416,535.938538 
	C538.766052,523.166443 537.542175,510.166443 545.795898,499.613983 
	C546.762085,498.378723 548.711670,497.912659 551.142029,496.574127 
	C551.142029,510.229431 551.142029,522.797180 551.142029,535.692505 
	C553.347534,535.806519 554.964722,535.960693 556.582153,535.962952 
	C577.910156,535.993103 599.238525,536.066650 620.565552,535.929321 
	C623.069336,535.913208 625.751038,535.089722 628.031799,533.983826 
	C636.070068,530.086182 644.074097,529.846924 652.097229,533.697571 
	C655.859192,535.503113 658.878845,538.243408 658.814270,542.823486 
	C658.749878,547.388306 655.657166,550.144226 651.899414,551.842468 
	C643.668152,555.562439 635.452698,555.365356 627.389465,551.019409 
	C625.844971,550.186951 624.019531,549.411987 622.319336,549.402527 
	C599.659058,549.276978 576.997986,549.289429 554.337158,549.286072 
	C553.531799,549.285950 552.726501,549.478027 551.320190,549.656982 
	C551.320190,562.321594 551.320190,574.888855 551.320190,587.528870 
	C547.026001,588.264648 544.801331,585.887634 543.913452,583.173157 
	C541.655945,576.271545 539.787659,569.215698 538.247314,562.116699 
	C537.378601,558.112549 537.466553,553.900818 537.080017,549.259766 
	C534.413208,549.259766 532.114380,549.260376 529.815491,549.259644 
	C368.189117,549.205872 206.562729,549.152649 44.936359,549.093018 
	C42.771721,549.092224 40.575676,549.226746 38.449539,548.917786 
	C34.873318,548.398193 31.950520,546.695801 31.864954,542.653992 
	C31.773113,538.315796 34.858646,536.597900 38.605743,536.010864 
	C40.561474,535.704590 42.595161,535.866333 44.593632,535.866638 
	C170.562424,535.886841 296.531219,535.912170 423.000000,535.937744 
z"/>
<path fill="#FBC30E" opacity="1.000000" stroke="none" 
	d="
M809.859741,751.469360 
	C811.355957,748.426025 810.109741,746.940308 807.953369,745.351746 
	C796.694824,737.057922 785.543945,728.617981 774.365540,720.215515 
	C773.339905,719.444580 772.384460,718.580078 770.651123,717.139648 
	C773.075928,716.945923 774.616882,716.744568 776.161377,716.711548 
	C789.981079,716.415771 803.800720,716.055359 817.622131,715.948792 
	C820.643250,715.925415 822.011597,714.881592 822.972168,712.085449 
	C827.886841,697.778992 832.988403,683.536865 838.452881,668.059204 
	C839.518677,670.687012 840.211853,672.224304 840.773621,673.808289 
	C845.223816,686.356506 849.799072,698.863892 853.984924,711.500122 
	C855.147766,715.010559 856.876465,715.974426 860.391541,715.994690 
	C873.879578,716.072510 887.365906,716.467896 900.852356,716.766785 
	C902.424561,716.801636 903.993713,716.973022 906.892639,717.172607 
	C900.103210,722.297119 894.339233,726.674805 888.545715,731.012939 
	C882.282532,735.702759 876.078796,740.480164 869.672241,744.966858 
	C866.907593,746.903137 866.282227,748.757874 867.343384,752.029602 
	C871.450134,764.690979 875.247620,777.452820 879.147339,790.181152 
	C879.622192,791.731201 880.019043,793.305115 880.807434,796.151184 
	C873.445251,791.168030 867.059448,786.866089 860.695190,782.532410 
	C854.365662,778.222290 847.953979,774.021423 841.791077,769.483704 
	C839.282227,767.636414 837.578064,767.981506 835.219849,769.618652 
	C823.461304,777.782410 811.591431,785.785828 799.757812,793.841492 
	C798.964661,794.381470 798.148254,794.887207 796.054871,796.242615 
	C800.886902,780.580627 805.315125,766.227417 809.859741,751.469360 
z"/>
<path fill="#F8FAFC" opacity="1.000000" stroke="none" 
	d="
M294.212433,741.220215 
	C291.639893,741.094055 289.495361,740.998352 286.603912,740.869385 
	C286.603912,747.626892 286.626434,754.213379 286.592316,760.799561 
	C286.579437,763.290344 286.685028,765.820312 286.294373,768.261719 
	C285.678406,772.111450 283.023682,774.114868 279.251434,773.911926 
	C275.488800,773.709412 273.018585,771.470825 272.857269,767.553650 
	C272.652039,762.569397 272.749268,757.571960 272.747864,752.580200 
	C272.743835,737.935852 272.738953,723.291443 272.768677,708.647156 
	C272.782043,702.048767 274.365112,699.153381 280.468262,697.503296 
	C293.716583,693.921509 307.141876,693.907166 320.365814,697.668030 
	C326.125031,699.305969 327.863220,702.394531 327.894012,708.499695 
	C327.925079,714.656799 327.903961,720.814209 327.892670,726.971497 
	C327.877838,735.052124 325.607269,737.948853 317.745605,739.925415 
	C316.190369,740.316406 314.625092,740.667664 312.569672,741.154419 
	C317.117096,748.329773 321.413147,755.023132 325.618774,761.772827 
	C328.715759,766.743286 328.225220,770.688171 324.370422,773.032471 
	C320.785950,775.212524 317.095001,773.897522 314.044495,769.160278 
	C308.911285,761.188904 303.928650,753.119873 298.732178,745.190552 
	C297.720337,743.646545 296.022064,742.552429 294.212433,741.220215 
M299.531616,727.866272 
	C304.249237,727.589050 308.966888,727.311829 313.978180,727.017334 
	C313.978180,721.617249 314.093445,716.989746 313.884735,712.376892 
	C313.840912,711.408264 312.624054,709.692261 311.916718,709.676086 
	C303.591614,709.485779 295.260590,709.553955 286.945740,709.553955 
	C286.945740,715.900085 286.945740,721.289673 286.945740,727.039246 
	C291.032349,727.320435 294.808990,727.580383 299.531616,727.866272 
z"/>
<path fill="#F6F9FB" opacity="1.000000" stroke="none" 
	d="
M385.894989,774.021484 
	C378.271942,773.631409 371.046356,773.792114 364.017181,772.694824 
	C354.727051,771.244629 352.390717,767.858154 352.392975,758.467773 
	C352.396973,741.971497 352.391846,725.475220 352.434448,708.979004 
	C352.452484,701.994324 354.614563,698.709167 361.355499,697.105042 
	C373.683685,694.171143 386.164185,694.182556 398.493317,697.101868 
	C405.525482,698.766907 407.685303,702.046753 407.689148,709.294983 
	C407.697998,725.957886 407.682068,742.620728 407.661682,759.283630 
	C407.651489,767.623535 405.402557,770.660522 397.258484,772.556824 
	C393.711609,773.382690 390.010773,773.547363 385.894989,774.021484 
M366.283905,731.500122 
	C366.281372,739.644531 366.135742,747.793884 366.418365,755.928406 
	C366.464996,757.270935 368.336426,759.627686 369.451263,759.680359 
	C376.570923,760.016724 383.719543,759.962463 390.845551,759.692017 
	C391.853302,759.653687 393.621857,757.748474 393.634308,756.690796 
	C393.816376,741.257385 393.759369,725.821228 393.759369,709.510254 
	C385.166656,709.510254 376.942963,709.407104 368.730560,709.665039 
	C367.881683,709.691711 366.449890,711.840942 366.398254,713.052612 
	C366.150757,718.859558 366.285278,724.682800 366.283905,731.500122 
z"/>
<path fill="#F9FAFC" opacity="1.000000" stroke="none" 
	d="
M151.908676,727.902466 
	C154.225235,727.909912 156.062820,727.833801 157.889496,727.941895 
	C161.998825,728.184998 164.555099,730.470642 164.665359,734.507935 
	C164.776489,738.576965 162.307449,741.161987 158.196518,741.294861 
	C150.873611,741.531860 143.539474,741.418335 136.210098,741.462036 
	C135.381805,741.467041 134.553909,741.540527 133.328949,741.602234 
	C133.328949,747.364868 133.328949,753.084473 133.328949,759.568726 
	C143.449081,759.830994 153.757446,762.624939 163.720901,757.402588 
	C167.100281,755.631287 170.315430,756.063843 172.672394,759.111023 
	C175.028397,762.156860 174.919479,765.802734 172.023666,768.114502 
	C169.281631,770.303406 165.701859,772.533203 162.383163,772.708130 
	C151.802414,773.265808 141.097687,773.640137 130.582443,772.622437 
	C121.260277,771.720032 119.037346,767.984314 119.038803,758.480469 
	C119.041336,741.986145 119.037117,725.491882 119.057793,708.997559 
	C119.066345,702.171692 120.755905,699.218933 127.080254,697.517212 
	C140.021286,694.035156 153.132614,694.119873 166.079880,697.523621 
	C168.607147,698.188049 171.646774,700.090515 172.703354,702.269043 
	C173.767578,704.463379 173.594406,708.396118 172.213516,710.293518 
	C171.015259,711.940002 166.508270,713.183533 164.958206,712.214417 
	C158.941986,708.453308 152.491028,709.127930 146.091522,709.025085 
	C141.830658,708.956604 137.561386,709.410217 133.136017,709.638428 
	C133.136017,715.936829 133.136017,721.565735 133.136017,727.902466 
	C139.232559,727.902466 145.328644,727.902466 151.908676,727.902466 
z"/>
<path fill="#F7FAFC" opacity="1.000000" stroke="none" 
	d="
M612.135498,709.059021 
	C608.531433,709.298279 605.403931,709.528320 602.555725,709.737793 
	C602.140747,710.459656 601.854370,710.733276 601.834412,711.025146 
	C601.107788,721.620483 601.098206,721.653015 610.916199,725.599915 
	C619.566772,729.077515 628.212341,732.574463 636.936829,735.858826 
	C641.097046,737.424988 643.022400,740.116211 642.937744,744.533508 
	C642.826050,750.363159 642.855347,756.196899 642.915344,762.027954 
	C642.962402,766.605591 640.859192,769.907715 636.625305,771.213562 
	C622.410522,775.597839 608.108032,775.500061 593.893982,771.119812 
	C592.391663,770.656799 590.960266,769.480774 589.858276,768.297913 
	C587.270447,765.520203 586.919312,762.209778 589.200500,759.191467 
	C591.490601,756.161316 594.724915,755.603210 598.129272,757.425293 
	C607.417419,762.396912 617.278076,760.039551 626.974792,759.727783 
	C627.541870,759.709595 628.280457,759.266235 628.617859,758.792053 
	C630.837891,755.672119 628.302490,747.238403 624.770813,745.840088 
	C614.554016,741.794861 604.374634,737.649963 594.095581,733.769226 
	C589.555542,732.055115 587.519714,729.221191 587.749023,724.326172 
	C588.005981,718.839600 587.986267,713.325134 587.769348,707.835388 
	C587.567261,702.721741 589.951721,699.322754 594.526306,697.971069 
	C608.260498,693.913025 622.146240,693.948120 635.852783,698.027283 
	C638.270386,698.746887 640.929626,701.079041 641.942749,703.350830 
	C642.803650,705.281555 642.252075,708.914429 640.853821,710.478882 
	C639.452820,712.046509 635.396912,713.316833 633.946411,712.410339 
	C627.164062,708.171692 619.833923,709.313599 612.135498,709.059021 
z"/>
<path fill="#F7F9FC" opacity="1.000000" stroke="none" 
	d="
M207.361176,697.894409 
	C208.021164,700.465088 208.777191,702.718933 208.790726,704.977173 
	C208.887466,721.127075 208.832916,737.277954 208.826675,753.428467 
	C208.825974,755.233643 208.826569,757.038757 208.826569,759.556396 
	C217.978500,759.556396 226.676727,759.556396 235.896271,759.556396 
	C235.997757,757.422302 236.151123,755.667114 236.153778,753.911743 
	C236.177673,738.094238 236.174667,722.276672 236.181229,706.459167 
	C236.181778,705.127258 236.116287,703.789368 236.215958,702.464478 
	C236.561356,697.872742 239.412216,694.879578 243.426559,695.226807 
	C247.724976,695.598633 250.047668,698.182861 250.056183,702.505493 
	C250.095551,722.485352 250.055801,742.465393 250.069397,762.445374 
	C250.072418,766.891724 247.712601,769.875000 243.776276,771.086182 
	C229.571899,775.456909 215.252365,775.488464 201.081589,770.949463 
	C196.932251,769.620422 194.857056,766.357361 194.879593,761.720215 
	C194.974274,742.240112 194.784027,722.756958 195.108871,703.281738 
	C195.150528,700.784729 197.044479,697.161926 199.093521,696.184448 
	C201.090530,695.231812 204.387360,697.003784 207.361176,697.894409 
z"/>
<path fill="#F7F9FC" opacity="1.000000" stroke="none" 
	d="
M549.173279,733.999878 
	C549.177551,724.335083 549.178833,715.170288 549.187866,706.005493 
	C549.189148,704.673035 549.111511,703.326721 549.269775,702.010742 
	C549.772034,697.836304 552.825256,694.945740 556.553162,695.325317 
	C560.588318,695.736084 563.029907,698.091797 563.043213,702.214539 
	C563.108826,722.543152 563.083923,742.872131 563.031982,763.200867 
	C563.020447,767.714111 560.099609,770.388367 556.237610,771.492126 
	C542.480774,775.423767 528.601990,775.429016 514.864868,771.408813 
	C510.050598,769.999878 507.878754,766.411743 507.925873,761.132751 
	C508.095306,742.138062 507.978424,723.140991 508.016327,704.144897 
	C508.027985,698.302246 510.639679,695.131653 515.124084,695.268494 
	C519.342896,695.397217 521.905090,698.585815 521.918152,704.032715 
	C521.957581,720.529236 521.925293,737.025940 521.921143,753.522583 
	C521.920654,755.337891 521.921082,757.153259 521.921082,759.675415 
	C530.989441,759.675415 539.694641,759.675415 549.172791,759.675415 
	C549.172791,751.014343 549.172791,742.757141 549.173279,733.999878 
z"/>
<path fill="#F9FBFD" opacity="1.000000" stroke="none" 
	d="
M483.301361,762.296265 
	C483.498566,767.721924 480.583344,770.636414 476.275085,771.849365 
	C462.677399,775.677307 448.959137,775.666260 435.359161,771.862305 
	C430.553619,770.518188 428.024506,767.119019 428.142517,761.788330 
	C428.326874,753.460205 428.142029,745.124451 428.217041,736.792908 
	C428.265259,731.437683 431.027313,728.197998 435.240753,728.273560 
	C439.428223,728.348694 442.037598,731.598633 442.083252,736.972900 
	C442.137024,743.304871 442.228088,749.641663 442.038818,755.968445 
	C441.951172,758.896729 442.872101,760.374207 445.876587,760.382019 
	C452.195526,760.398438 458.514801,760.416260 464.833069,760.499146 
	C468.410797,760.546082 469.605042,759.034851 469.562561,755.343689 
	C469.374695,739.014832 469.499084,722.682373 469.521729,706.351196 
	C469.523804,704.853455 469.470062,703.336914 469.676239,701.861816 
	C470.219360,697.976562 472.612976,695.913025 476.463959,695.906067 
	C480.333832,695.899109 482.696014,697.988770 483.207031,701.881165 
	C483.401031,703.358582 483.327942,704.874756 483.327728,706.373291 
	C483.325043,724.870850 483.313354,743.368408 483.301361,762.296265 
z"/>
<path fill="#F6F9FC" opacity="1.000000" stroke="none" 
	d="
M697.953003,749.999451 
	C697.950684,755.660645 698.009583,760.823059 697.929138,765.983215 
	C697.850647,771.014771 695.202454,774.093262 691.113647,774.121643 
	C687.043945,774.149902 684.202820,771.048096 684.183105,766.066345 
	C684.112610,748.251465 684.163818,730.436157 684.156494,712.620972 
	C684.156128,711.640686 684.042358,710.660461 683.939270,709.003784 
	C679.751221,709.003784 675.653992,709.077942 671.560608,708.984802 
	C666.545837,708.870850 663.538452,706.138977 663.645996,701.977356 
	C663.749695,697.963745 666.579468,695.305420 671.377625,695.270813 
	C684.530090,695.175964 697.684326,695.189514 710.836670,695.300964 
	C715.580994,695.341125 718.526733,698.068176 718.638184,702.000305 
	C718.751831,706.012207 715.543579,708.878540 710.635864,708.987244 
	C706.659851,709.075256 702.680420,709.005127 697.953125,709.005127 
	C697.953125,722.680420 697.953125,736.090027 697.953003,749.999451 
z"/>
<path fill="#FFC60F" opacity="1.000000" stroke="none" 
	d="
M68.824127,420.823792 
	C101.668579,378.896423 134.284561,337.243652 167.284653,295.100311 
	C202.115234,340.671234 236.467133,385.615875 271.325012,431.222504 
	C201.065964,431.222504 131.624069,431.222504 60.832333,431.222504 
	C63.871479,427.259125 66.233566,424.178741 68.824127,420.823792 
z"/>
<path fill="#E82918" opacity="1.000000" stroke="none" 
	d="
M605.425049,353.583130 
	C610.962830,360.856567 616.292175,367.839600 622.153748,375.520050 
	C551.760620,375.520050 482.260040,375.520050 411.665680,375.520050 
	C447.270172,330.041199 482.485352,285.059601 518.182129,239.462845 
	C547.448120,277.738983 576.332336,315.515839 605.425049,353.583130 
z"/>
<path fill="#07539C" opacity="1.000000" stroke="none" 
	d="
M299.058655,727.853271 
	C294.808990,727.580383 291.032349,727.320435 286.945740,727.039246 
	C286.945740,721.289673 286.945740,715.900085 286.945740,709.553955 
	C295.260590,709.553955 303.591614,709.485779 311.916718,709.676086 
	C312.624054,709.692261 313.840912,711.408264 313.884735,712.376892 
	C314.093445,716.989746 313.978180,721.617249 313.978180,727.017334 
	C308.966888,727.311829 304.249237,727.589050 299.058655,727.853271 
z"/>
<path fill="#08549C" opacity="1.000000" stroke="none" 
	d="
M366.283997,731.000183 
	C366.285278,724.682800 366.150757,718.859558 366.398254,713.052612 
	C366.449890,711.840942 367.881683,709.691711 368.730560,709.665039 
	C376.942963,709.407104 385.166656,709.510254 393.759369,709.510254 
	C393.759369,725.821228 393.816376,741.257385 393.634308,756.690796 
	C393.621857,757.748474 391.853302,759.653687 390.845551,759.692017 
	C383.719543,759.962463 376.570923,760.016724 369.451263,759.680359 
	C368.336426,759.627686 366.464996,757.270935 366.418365,755.928406 
	C366.135742,747.793884 366.281372,739.644531 366.283997,731.000183 
z"/>
</svg>